<svg width="155" height="24" viewBox="0 0 155 24" fill="none" xmlns="http://www.w3.org/2000/svg">
<path d="M92.7873 12.9066C92.7873 9.2659 90.0318 5.91552 85.7058 6.06781C83.4215 6.14871 81.6797 7.348 81.6797 7.348V0H77.8105L77.8581 19.8263C77.8629 21.9631 79.5952 23.6906 81.732 23.6906H85.1871C88.9848 23.6906 91.3311 21.3968 92.2258 19.2742C93.0681 17.2659 92.7873 15.0291 92.7873 12.9066ZM86.3673 19.9405C84.9872 20.2831 84.2543 20.1689 82.2603 20.1689H82.1699C81.8938 20.1689 81.6749 19.95 81.6749 19.6787C81.6749 17.837 81.6749 11.3742 81.6749 9.88934C81.6749 9.88934 82.3792 9.36108 84.6874 9.2659C86.3769 9.19452 87.4762 10.0369 87.8046 10.4366C88.1615 10.8697 89.0229 11.8929 89.0229 15.3052C89.0229 18.1035 87.5524 19.6407 86.3626 19.9357L86.3673 19.9405Z" fill="#020E4E"/>
<path d="M44.5024 6.03516L40.3145 10.2184V23.6913H44.5024V6.03516Z" fill="#020E4E"/>
<path d="M95.8574 23.9809L100.05 19.7882V0H95.8574V23.9809Z" fill="#020E4E"/>
<path d="M44.5072 0H40.3145V4.19274H44.5072V0Z" fill="#020E4E"/>
<path d="M119.044 14.8967C119.044 19.77 115.413 23.977 110.72 23.977C106.028 23.977 102.396 19.77 102.396 14.8967C102.396 10.0234 106.028 5.81641 110.72 5.81641C115.413 5.81641 119.044 10.0234 119.044 14.8967ZM106.694 15.1204C106.694 18.1662 108.312 20.2173 110.715 20.2173C113.119 20.2173 114.851 18.1662 114.851 15.068C114.851 11.9699 113.119 9.58559 110.715 9.58559C108.312 9.58559 106.694 12.0793 106.694 15.1251V15.1204Z" fill="#020E4E"/>
<path d="M154.941 23.6945H149.749L143.762 15.4947L142.449 16.7082V23.6945H138.256V0.00390625H142.449V11.4352L148.293 6.02413H154.004L146.86 12.6297L154.941 23.6945Z" fill="#020E4E"/>
<path d="M6.1201 5.81726C4.31642 5.81726 1.08977 6.21702 0.199821 9.44843C-0.228495 11.0046 -0.0333724 12.8988 1.42766 14.1123C2.53176 15.0356 4.03087 15.5305 5.26823 15.916C6.50559 16.3015 8.86132 16.8107 8.86132 18.4431C8.86132 20.0754 6.79589 20.4657 5.23015 20.5085C2.88393 20.5799 0.256929 19.6138 0.256929 19.6138V23.007C0.256929 23.007 2.51273 23.9683 5.67751 23.9683C9.19922 23.9683 12.7828 22.0885 12.7828 18.3431C12.7828 15.897 11.3218 14.1313 8.75187 13.2366C6.10106 12.3134 3.63111 11.7756 3.63111 10.3384C3.63111 9.23903 5.17305 8.99632 6.01064 8.99632C7.89523 8.99632 10.1463 9.61975 11.1504 10.1147V6.68817C10.1843 6.336 8.35686 5.86485 6.1201 5.8125V5.81726Z" fill="#020E4E"/>
<path d="M53.8584 5.81726C52.0547 5.81726 48.828 6.21702 47.9381 9.44843C47.5098 11.0046 47.7049 12.8988 49.1659 14.1123C50.27 15.0356 51.7692 15.5305 53.0065 15.916C54.2439 16.3015 56.5996 16.8107 56.5996 18.4431C56.5996 20.0754 54.5342 20.4657 52.9684 20.5085C50.6222 20.5799 47.9952 19.6138 47.9952 19.6138V23.007C47.9952 23.007 50.251 23.9683 53.4158 23.9683C56.9375 23.9683 60.5211 22.0885 60.5211 18.3431C60.5211 15.897 59.06 14.1313 56.4901 13.2366C53.8393 12.3134 51.3694 11.7756 51.3694 10.3384C51.3694 9.23903 52.9113 8.99632 53.7489 8.99632C55.6335 8.99632 57.8846 9.61975 58.8887 10.1147V6.68817C57.9226 6.336 56.0951 5.86485 53.8584 5.8125V5.81726Z" fill="#020E4E"/>
<path d="M68.4443 5.81726C66.6406 5.81726 63.414 6.21702 62.524 9.44843C62.0957 11.0046 62.2908 12.8988 63.7519 14.1123C64.856 15.0356 66.3551 15.5305 67.5924 15.916C68.8298 16.3015 71.1855 16.8107 71.1855 18.4431C71.1855 20.0754 69.1201 20.4657 67.5544 20.5085C65.2082 20.5799 62.5811 19.6138 62.5811 19.6138V23.007C62.5811 23.007 64.8369 23.9683 68.0017 23.9683C71.5234 23.9683 75.107 22.0885 75.107 18.3431C75.107 15.897 73.646 14.1313 71.0761 13.2366C68.4253 12.3134 65.9553 11.7756 65.9553 10.3384C65.9553 9.23903 67.4973 8.99632 68.3349 8.99632C70.2194 8.99632 72.4705 9.61975 73.4747 10.1147V6.68817C72.5086 6.336 70.6811 5.86485 68.4443 5.8125V5.81726Z" fill="#020E4E"/>
<path d="M37.9497 6.03516C37.9497 6.03516 33.281 21.9733 33.0526 22.7442C32.8479 23.4438 31.9009 24.0006 30.7254 24.0006C29.5499 24.0006 28.5791 23.4676 28.3982 22.7633C28.2412 22.1636 25.7522 12.4171 25.7522 12.4171C25.7522 12.4171 23.2632 22.1636 23.1061 22.7633C22.93 23.4676 21.9497 24.0006 20.7837 24.0006C19.6177 24.0006 18.6564 23.4486 18.4518 22.7442C18.2281 21.9733 13.5547 6.03516 13.5547 6.03516H17.6332L21.1549 18.047L24.2245 6.03516H27.2751L30.3494 18.047L33.8664 6.03516H37.9449H37.9497Z" fill="#020E4E"/>
<path d="M135.247 18.9485L135.304 22.5797C134.295 23.1936 133.182 23.5982 132.063 23.8123C128.661 24.4595 124.968 23.0318 122.897 20.0146C121.827 18.4679 121.294 16.6737 121.279 14.8891C121.294 13.1092 121.827 11.3102 122.897 9.76355C124.968 6.7463 128.661 5.31858 132.063 5.96581C133.182 6.17997 134.3 6.57973 135.304 7.19841L135.247 10.8296C133.186 9.62077 131.464 9.34951 130.217 9.48276C127.671 9.75879 125.667 11.8956 125.667 14.8891C125.667 17.8825 127.675 20.0193 130.217 20.2954C131.464 20.4286 133.186 20.1573 135.247 18.9485Z" fill="#020E4E"/>
</svg>
